<svg xmlns="http://www.w3.org/2000/svg" xmlns:xlink="http://www.w3.org/1999/xlink" width="500" zoomAndPan="magnify" viewBox="0 0 375 374.999991" height="500" preserveAspectRatio="xMidYMid meet" version="1.0"><defs><g/><clipPath id="093e50fc8d"><path d="M 18 119 L 322 119 L 322 250 L 18 250 Z M 18 119 " clip-rule="nonzero"/></clipPath><clipPath id="90e951fa35"><path d="M 70.5 93.609375 L 322.003906 193.863281 L 264.792969 337.382812 L 13.289062 237.125 Z M 70.5 93.609375 " clip-rule="nonzero"/></clipPath><clipPath id="23bec94be5"><path d="M 70.5 93.609375 L 322.003906 193.863281 L 264.792969 337.382812 L 13.289062 237.125 Z M 70.5 93.609375 " clip-rule="nonzero"/></clipPath></defs><g clip-path="url(#093e50fc8d)"><g clip-path="url(#90e951fa35)"><g clip-path="url(#23bec94be5)"><path fill="#ffffff" d="M 127.136719 197.171875 C 126.980469 197.835938 126.832031 198.367188 126.730469 198.90625 C 126.414062 200.589844 125.933594 202.226562 125.34375 203.839844 C 124.046875 207.375 122.53125 210.804688 120.484375 213.972656 C 118.386719 217.21875 116.035156 220.269531 113.40625 223.113281 C 108.242188 228.699219 102.367188 233.417969 95.921875 237.425781 C 89.65625 241.316406 83.007812 244.382812 75.945312 246.542969 C 68.285156 248.890625 60.46875 250.058594 52.449219 249.597656 C 48.863281 249.390625 45.339844 248.839844 41.855469 247.929688 C 38.738281 247.117188 35.734375 246.03125 32.851562 244.625 C 28.953125 242.726562 25.421875 240.300781 22.636719 236.914062 C 21.113281 235.058594 19.941406 233 19.339844 230.667969 C 18.265625 226.53125 19.050781 222.679688 21.257812 219.082031 C 22.960938 216.316406 25.265625 214.113281 27.871094 212.214844 C 31.230469 209.761719 34.914062 207.878906 38.738281 206.265625 C 44.035156 204.027344 49.515625 202.324219 55.0625 200.835938 C 55.59375 200.691406 56.125 200.550781 56.636719 200.417969 C 56.648438 200.386719 64.582031 178.820312 64.589844 178.804688 C 64.070312 178.445312 63.519531 178.734375 62.992188 178.753906 C 60.730469 178.828125 58.59375 178.425781 56.703125 177.113281 C 56.210938 176.773438 55.75 176.359375 55.359375 175.90625 C 54.722656 175.175781 54.574219 174.304688 55.066406 173.449219 C 55.445312 172.789062 55.902344 172.152344 56.421875 171.59375 C 57.5625 170.382812 58.933594 169.449219 60.347656 168.582031 C 63.226562 166.8125 66.289062 165.421875 69.464844 164.277344 C 70.242188 163.996094 71.023438 163.726562 71.878906 163.429688 C 72.132812 162.996094 72.417969 162.527344 72.6875 162.050781 C 73.871094 159.933594 75.0625 157.820312 76.222656 155.691406 C 76.59375 155.015625 76.941406 154.3125 77.1875 153.585938 C 77.9375 151.394531 78.652344 149.1875 79.34375 146.976562 C 80.398438 143.605469 81.421875 140.226562 82.460938 136.855469 C 82.851562 135.589844 83.246094 134.328125 83.652344 133.066406 C 83.75 132.75 83.878906 132.445312 84.011719 132.140625 C 84.511719 130.988281 85.058594 130.738281 86.222656 131.117188 C 86.378906 131.167969 86.53125 131.238281 86.6875 131.296875 C 87.566406 131.625 88.027344 132.253906 87.964844 133.199219 C 87.871094 134.570312 87.75 135.945312 87.644531 137.316406 C 87.628906 137.519531 87.660156 137.722656 87.671875 138.0625 C 88.222656 137.859375 88.4375 137.476562 88.683594 137.15625 C 91.199219 133.867188 93.914062 130.75 96.832031 127.816406 C 98.972656 125.664062 101.199219 123.609375 103.710938 121.878906 C 104.941406 121.035156 106.226562 120.289062 107.617188 119.738281 C 110.238281 118.699219 112.808594 118.914062 115.320312 120.089844 C 116.015625 120.417969 116.707031 120.792969 117.3125 121.253906 C 118.789062 122.382812 119.574219 123.925781 119.828125 125.757812 C 120.15625 128.101562 119.800781 130.378906 119.085938 132.605469 C 117.421875 137.8125 114.777344 142.492188 111.457031 146.824219 C 107.78125 151.617188 103.566406 155.878906 98.96875 159.773438 C 98.597656 160.085938 98.242188 160.421875 97.761719 160.855469 C 98.613281 161.160156 99.351562 161.304688 100.085938 161.4375 C 105.550781 162.421875 110.589844 164.484375 115.082031 167.714844 C 122.34375 172.933594 126.398438 180.066406 127.3125 188.96875 C 127.355469 189.40625 127.398438 189.847656 127.453125 190.285156 C 127.46875 190.386719 127.542969 190.484375 127.613281 190.636719 C 128.023438 190.632812 128.460938 190.648438 128.894531 190.621094 C 138.195312 190.066406 147.5 189.675781 156.8125 189.476562 C 167.167969 189.257812 177.527344 189.070312 187.886719 189.023438 C 198.792969 188.976562 209.707031 189.074219 220.613281 189.183594 C 228.382812 189.257812 236.148438 189.441406 243.917969 189.597656 C 255.265625 189.828125 266.613281 190.050781 277.957031 190.328125 C 288.917969 190.597656 299.878906 190.933594 310.835938 191.25 C 311.992188 191.285156 313.148438 191.359375 314.300781 191.453125 C 316.03125 191.59375 317.640625 192.160156 319.171875 192.953125 C 319.921875 193.34375 320.554688 193.875 321.039062 194.554688 C 321.632812 195.390625 321.402344 196.207031 320.4375 196.523438 C 319.765625 196.746094 319.042969 196.882812 318.335938 196.917969 C 315.417969 197.070312 312.5 197.273438 309.582031 197.269531 C 298.394531 197.253906 287.210938 197.210938 276.023438 197.09375 C 267.761719 197.007812 259.496094 196.816406 251.234375 196.636719 C 240.269531 196.40625 229.308594 196.105469 218.347656 195.902344 C 210.300781 195.757812 202.257812 195.65625 194.210938 195.65625 C 183.628906 195.660156 173.050781 195.753906 162.472656 195.867188 C 151.558594 195.980469 140.652344 196.394531 129.753906 196.976562 C 128.933594 197.015625 128.113281 197.097656 127.136719 197.171875 Z M 54.078125 208.101562 C 53.660156 208.164062 53.289062 208.175781 52.949219 208.28125 C 48.359375 209.71875 43.859375 211.386719 39.59375 213.628906 C 36.800781 215.09375 34.148438 216.777344 31.859375 218.976562 C 30.011719 220.753906 28.457031 222.734375 27.554688 225.167969 C 25.890625 229.664062 26.664062 233.730469 29.753906 237.367188 C 31.503906 239.425781 33.738281 240.828125 36.132812 241.996094 C 37.984375 242.894531 39.976562 243.386719 41.96875 243.8125 C 46.089844 244.683594 50.265625 244.867188 54.46875 244.570312 C 61.019531 244.101562 67.320312 242.535156 73.4375 240.210938 C 84.199219 236.125 93.757812 230.085938 102.109375 222.175781 C 107.996094 216.59375 112.976562 210.3125 116.246094 202.800781 C 116.929688 201.234375 117.582031 199.664062 117.953125 198.003906 C 117.449219 197.621094 116.941406 197.804688 116.46875 197.851562 C 110.042969 198.460938 103.617188 199.007812 97.207031 199.71875 C 87.9375 200.75 78.726562 202.167969 69.589844 204.0625 C 69.175781 204.148438 68.769531 204.292969 68.425781 204.390625 C 68.304688 204.652344 68.226562 204.800781 68.171875 204.953125 C 66.402344 209.832031 64.65625 214.71875 62.859375 219.585938 C 62.339844 220.980469 61.679688 222.320312 61.085938 223.683594 C 60.710938 224.539062 59.988281 224.890625 59.128906 225.007812 C 58.746094 225.054688 58.351562 225.070312 57.972656 225.019531 C 55.796875 224.738281 53.820312 223.953125 52.070312 222.617188 C 51.851562 222.449219 51.664062 222.246094 51.476562 222.042969 C 50.835938 221.351562 50.535156 220.585938 50.820312 219.625 C 51.351562 217.824219 51.824219 216.007812 52.359375 214.210938 C 52.910156 212.363281 53.511719 210.527344 54.082031 208.683594 C 54.121094 208.542969 54.082031 208.375 54.078125 208.101562 Z M 70.972656 197.167969 C 71.742188 197.058594 72.277344 196.992188 72.808594 196.90625 C 77.921875 196.085938 83.027344 195.179688 88.160156 194.460938 C 98.148438 193.066406 108.1875 192.089844 118.242188 191.316406 C 118.609375 191.289062 118.972656 191.199219 119.28125 191.144531 C 119.355469 190.9375 119.414062 190.835938 119.421875 190.730469 C 119.917969 185.011719 118.847656 179.617188 115.808594 174.71875 C 112.890625 170.015625 108.695312 167.015625 103.3125 165.582031 C 100.300781 164.78125 97.257812 164.460938 94.167969 164.375 C 93.488281 164.355469 92.890625 164.488281 92.308594 164.902344 C 88.308594 167.761719 84.144531 170.355469 79.800781 172.652344 C 79.273438 172.933594 78.949219 173.3125 78.800781 173.875 C 78.601562 174.621094 78.40625 175.371094 78.152344 176.101562 C 76.332031 181.367188 74.488281 186.625 72.675781 191.894531 C 72.101562 193.558594 71.59375 195.246094 70.972656 197.167969 Z M 113.128906 123.527344 C 112.5625 123.800781 112.160156 123.957031 111.796875 124.175781 C 110.050781 125.246094 108.5 126.574219 107.023438 127.988281 C 101.175781 133.578125 96.3125 139.984375 91.769531 146.644531 C 89.066406 150.609375 86.554688 154.695312 84.179688 158.863281 C 83.832031 159.472656 83.4375 160.058594 83.296875 160.890625 C 83.984375 160.835938 84.578125 160.738281 85.171875 160.746094 C 86.160156 160.757812 86.949219 160.394531 87.730469 159.792969 C 90.753906 157.472656 93.679688 155.046875 96.433594 152.414062 C 101.234375 147.828125 105.570312 142.863281 109 137.140625 C 110.539062 134.5625 111.734375 131.839844 112.636719 128.996094 C 113.175781 127.3125 113.464844 125.570312 113.128906 123.527344 Z M 66.683594 171.941406 C 66.730469 172.039062 66.777344 172.136719 66.824219 172.230469 C 67.140625 172.058594 67.46875 171.902344 67.765625 171.703125 C 67.824219 171.664062 67.785156 171.472656 67.796875 171.214844 C 67.347656 171.507812 67.015625 171.722656 66.683594 171.941406 Z M 66.683594 171.941406 " fill-opacity="1" fill-rule="nonzero"/></g></g></g><g fill="#ffffff" fill-opacity="1"><g transform="translate(125.48888, 186.067574)"><g><path d="M 3.40625 -37.140625 L 2.6875 -37.140625 L -0.84375 -44.109375 L 3.203125 -59.6875 L 18.59375 -59.765625 L 22.203125 -52.453125 L 22.34375 -21.9375 C 22.707031 -21.820312 23.003906 -21.734375 23.234375 -21.671875 C 23.472656 -21.609375 23.773438 -21.578125 24.140625 -21.578125 C 25.691406 -21.585938 27.003906 -22.195312 28.078125 -23.40625 C 28.671875 -24 29.050781 -24.816406 29.21875 -25.859375 C 29.394531 -26.898438 29.476562 -28.613281 29.46875 -31 L 29.328125 -59.8125 L 44.90625 -59.890625 L 48.328125 -53.015625 L 48.46875 -23.671875 C 48.476562 -21.046875 48.425781 -18.851562 48.3125 -17.09375 C 48.207031 -15.332031 48.007812 -13.796875 47.71875 -12.484375 C 47.425781 -11.171875 46.984375 -9.988281 46.390625 -8.9375 C 45.804688 -7.894531 45.066406 -6.804688 44.171875 -5.671875 C 42.453125 -3.453125 40.207031 -1.738281 37.4375 -0.53125 C 34.664062 0.675781 31.582031 1.285156 28.1875 1.296875 C 25.144531 1.316406 22.3125 0.851562 19.6875 -0.09375 C 17.0625 -1.039062 14.878906 -2.375 13.140625 -4.09375 C 11.929688 -5.269531 10.679688 -6.820312 9.390625 -8.75 C 8.097656 -10.6875 6.96875 -12.703125 6 -14.796875 C 5.050781 -16.804688 4.390625 -18.75 4.015625 -20.625 C 3.648438 -22.507812 3.460938 -24.796875 3.453125 -27.484375 Z M 17.4375 -58.140625 L 4.375 -58.078125 L 1.125 -45.359375 L 4.796875 -45.390625 L 4.859375 -31.078125 C 4.867188 -28.867188 4.90625 -27.046875 4.96875 -25.609375 C 5.039062 -24.179688 5.164062 -22.945312 5.34375 -21.90625 C 5.53125 -20.863281 5.789062 -19.910156 6.125 -19.046875 C 6.457031 -18.179688 6.894531 -17.238281 7.4375 -16.21875 C 9 -13.425781 11.226562 -11.304688 14.125 -9.859375 C 17.03125 -8.421875 20.515625 -7.710938 24.578125 -7.734375 C 28.273438 -7.742188 31.472656 -8.394531 34.171875 -9.6875 C 36.878906 -10.988281 39.03125 -12.921875 40.625 -15.484375 C 41.28125 -16.503906 41.8125 -17.476562 42.21875 -18.40625 C 42.632812 -19.332031 42.945312 -20.363281 43.15625 -21.5 C 43.363281 -22.632812 43.507812 -23.972656 43.59375 -25.515625 C 43.675781 -27.066406 43.707031 -28.976562 43.6875 -31.25 L 43.5625 -58.265625 L 30.765625 -58.21875 L 30.90625 -28.78125 C 30.914062 -27.050781 30.816406 -25.734375 30.609375 -24.828125 C 30.410156 -23.929688 30.039062 -23.15625 29.5 -22.5 C 28.195312 -20.882812 26.414062 -20.070312 24.15625 -20.0625 C 21.644531 -20.050781 19.816406 -21 18.671875 -22.90625 C 18.253906 -23.625 17.96875 -24.410156 17.8125 -25.265625 C 17.664062 -26.128906 17.585938 -27.363281 17.578125 -28.96875 Z M 17.4375 -58.140625 "/></g></g></g><g fill="#ffffff" fill-opacity="1"><g transform="translate(177.382891, 185.818637)"><g><path d="M 4.078125 -6.71875 L 3.9375 -37.140625 L 3.234375 -37.140625 L -0.203125 -43.84375 L 3.828125 -59.6875 L 25.75 -59.796875 C 29.925781 -59.816406 33.222656 -59.328125 35.640625 -58.328125 C 38.066406 -57.328125 40.085938 -55.578125 41.703125 -53.078125 C 42.484375 -51.828125 43.660156 -49.414062 45.234375 -45.84375 C 45.523438 -45.070312 45.78125 -44.414062 46 -43.875 C 46.21875 -43.34375 46.382812 -42.820312 46.5 -42.3125 C 46.613281 -41.800781 46.6875 -41.320312 46.71875 -40.875 C 46.757812 -40.4375 46.78125 -39.914062 46.78125 -39.3125 C 46.789062 -37.226562 46.453125 -35.378906 45.765625 -33.765625 C 45.085938 -32.160156 44.097656 -30.84375 42.796875 -29.8125 C 43.035156 -29.457031 43.351562 -28.894531 43.75 -28.125 C 44.144531 -27.351562 44.671875 -26.398438 45.328125 -25.265625 C 46.347656 -23.296875 47.144531 -21.390625 47.71875 -19.546875 C 48.300781 -17.703125 48.597656 -16.035156 48.609375 -14.546875 C 48.617188 -12.160156 48.101562 -9.992188 47.0625 -8.046875 C 46.03125 -6.109375 44.5625 -4.476562 42.65625 -3.15625 C 41.113281 -2.132812 39.285156 -1.378906 37.171875 -0.890625 C 35.054688 -0.398438 32.296875 -0.148438 28.890625 -0.140625 L 7.421875 -0.03125 Z M 5.765625 -8.359375 L 24.828125 -8.453125 C 28.160156 -8.460938 30.929688 -8.707031 33.140625 -9.1875 C 35.347656 -9.675781 37.140625 -10.429688 38.515625 -11.453125 C 41.835938 -13.859375 43.488281 -17.351562 43.46875 -21.9375 C 43.4375 -28.207031 40.191406 -32.398438 33.734375 -34.515625 C 36.484375 -35.671875 38.503906 -37.160156 39.796875 -38.984375 C 41.097656 -40.804688 41.742188 -43.117188 41.734375 -45.921875 C 41.722656 -48.066406 41.222656 -50.078125 40.234375 -51.953125 C 39.242188 -53.828125 37.941406 -55.207031 36.328125 -56.09375 C 33.691406 -57.507812 30.078125 -58.207031 25.484375 -58.1875 L 5.171875 -58.09375 L 1.84375 -45.375 L 5.59375 -45.390625 Z M 18.203125 -47.421875 L 23.296875 -47.4375 C 25.617188 -47.445312 27.316406 -47.066406 28.390625 -46.296875 C 29.472656 -45.523438 30.019531 -44.273438 30.03125 -42.546875 C 30.039062 -40.640625 29.46875 -39.28125 28.3125 -38.46875 C 27.15625 -37.65625 25.207031 -37.242188 22.46875 -37.234375 L 18.265625 -37.21875 Z M 18.296875 -31.046875 L 22.671875 -31.0625 C 27.921875 -31.082031 30.550781 -29.1875 30.5625 -25.375 C 30.570312 -23.457031 29.867188 -21.960938 28.453125 -20.890625 C 27.796875 -20.410156 27.046875 -20.078125 26.203125 -19.890625 C 25.367188 -19.710938 24.117188 -19.617188 22.453125 -19.609375 L 18.34375 -19.59375 Z M 23.4375 -21.140625 C 24.75 -21.203125 25.625 -21.289062 26.0625 -21.40625 C 26.507812 -21.53125 27.03125 -21.867188 27.625 -22.421875 L 23.421875 -22.390625 Z M 23.4375 -21.140625 "/></g></g></g><g fill="#ffffff" fill-opacity="1"><g transform="translate(227.755872, 185.576998)"><g><path d="M 4.078125 -6.71875 L 3.9375 -37.140625 L 3.234375 -37.140625 L -0.203125 -43.84375 L 3.828125 -59.6875 L 25.75 -59.796875 C 29.925781 -59.816406 33.222656 -59.328125 35.640625 -58.328125 C 38.066406 -57.328125 40.085938 -55.578125 41.703125 -53.078125 C 42.484375 -51.828125 43.660156 -49.414062 45.234375 -45.84375 C 45.523438 -45.070312 45.78125 -44.414062 46 -43.875 C 46.21875 -43.34375 46.382812 -42.820312 46.5 -42.3125 C 46.613281 -41.800781 46.6875 -41.320312 46.71875 -40.875 C 46.757812 -40.4375 46.78125 -39.914062 46.78125 -39.3125 C 46.789062 -37.226562 46.453125 -35.378906 45.765625 -33.765625 C 45.085938 -32.160156 44.097656 -30.84375 42.796875 -29.8125 C 43.035156 -29.457031 43.351562 -28.894531 43.75 -28.125 C 44.144531 -27.351562 44.671875 -26.398438 45.328125 -25.265625 C 46.347656 -23.296875 47.144531 -21.390625 47.71875 -19.546875 C 48.300781 -17.703125 48.597656 -16.035156 48.609375 -14.546875 C 48.617188 -12.160156 48.101562 -9.992188 47.0625 -8.046875 C 46.03125 -6.109375 44.5625 -4.476562 42.65625 -3.15625 C 41.113281 -2.132812 39.285156 -1.378906 37.171875 -0.890625 C 35.054688 -0.398438 32.296875 -0.148438 28.890625 -0.140625 L 7.421875 -0.03125 Z M 5.765625 -8.359375 L 24.828125 -8.453125 C 28.160156 -8.460938 30.929688 -8.707031 33.140625 -9.1875 C 35.347656 -9.675781 37.140625 -10.429688 38.515625 -11.453125 C 41.835938 -13.859375 43.488281 -17.351562 43.46875 -21.9375 C 43.4375 -28.207031 40.191406 -32.398438 33.734375 -34.515625 C 36.484375 -35.671875 38.503906 -37.160156 39.796875 -38.984375 C 41.097656 -40.804688 41.742188 -43.117188 41.734375 -45.921875 C 41.722656 -48.066406 41.222656 -50.078125 40.234375 -51.953125 C 39.242188 -53.828125 37.941406 -55.207031 36.328125 -56.09375 C 33.691406 -57.507812 30.078125 -58.207031 25.484375 -58.1875 L 5.171875 -58.09375 L 1.84375 -45.375 L 5.59375 -45.390625 Z M 18.203125 -47.421875 L 23.296875 -47.4375 C 25.617188 -47.445312 27.316406 -47.066406 28.390625 -46.296875 C 29.472656 -45.523438 30.019531 -44.273438 30.03125 -42.546875 C 30.039062 -40.640625 29.46875 -39.28125 28.3125 -38.46875 C 27.15625 -37.65625 25.207031 -37.242188 22.46875 -37.234375 L 18.265625 -37.21875 Z M 18.296875 -31.046875 L 22.671875 -31.0625 C 27.921875 -31.082031 30.550781 -29.1875 30.5625 -25.375 C 30.570312 -23.457031 29.867188 -21.960938 28.453125 -20.890625 C 27.796875 -20.410156 27.046875 -20.078125 26.203125 -19.890625 C 25.367188 -19.710938 24.117188 -19.617188 22.453125 -19.609375 L 18.34375 -19.59375 Z M 23.4375 -21.140625 C 24.75 -21.203125 25.625 -21.289062 26.0625 -21.40625 C 26.507812 -21.53125 27.03125 -21.867188 27.625 -22.421875 L 23.421875 -22.390625 Z M 23.4375 -21.140625 "/></g></g></g><g fill="#ffffff" fill-opacity="1"><g transform="translate(278.128842, 185.335358)"><g><path d="M 4.078125 -6.90625 L 3.9375 -37.0625 L 3.40625 -37.0625 L -0.203125 -43.921875 L 3.828125 -59.6875 L 19.21875 -59.765625 L 22.921875 -52.359375 L 23.0625 -22.828125 L 30.671875 -22.859375 L 34.015625 -16.078125 L 30.0625 -0.140625 L 7.515625 -0.03125 Z M 25.71875 -8.453125 L 28.796875 -21.171875 L 18.34375 -21.125 L 18.15625 -58.15625 L 5 -58.09375 L 1.65625 -45.375 L 5.59375 -45.390625 L 5.765625 -8.359375 Z M 25.71875 -8.453125 "/></g></g></g><g fill="#ffffff" fill-opacity="1"><g transform="translate(312.128355, 185.172262)"><g><path d="M 3.90625 -7 L 3.765625 -36.96875 L 3.234375 -36.96875 L -0.203125 -43.921875 L 3.65625 -59.6875 L 24.140625 -59.78125 L 24.671875 -61.765625 L 38.984375 -61.828125 L 42.234375 -54.6875 L 38.28125 -38.84375 L 41.09375 -32.765625 L 38.359375 -22.015625 L 41.171875 -16.046875 L 37.21875 -0.171875 L 7.15625 -0.03125 Z M 32.78125 -8.484375 L 35.96875 -21.28125 L 18.15625 -21.203125 L 18.109375 -29.171875 L 33.59375 -29.234375 L 35.875 -38.203125 L 18.0625 -38.125 L 18.03125 -45.453125 L 33.515625 -45.515625 L 37.03125 -60.390625 L 26.015625 -60.34375 L 25.390625 -58.1875 L 4.8125 -58.09375 L 1.75 -45.375 L 5.234375 -45.390625 L 5.40625 -8.359375 Z M 32.78125 -8.484375 "/></g></g></g></svg>